# xmcd
#
# Track frame offsets:
#	150
#	19895
#	44646
#	66040
#	79801
#	94581
#	111242
#	128265
#	141466
#	157716
#	174115
#	190944
#	207286
#	224711
#	238600
#	266011
#
# Disc length: 3555 seconds
#
# Revision: 1
# Processed by: cddbd v1.5.2PL0 Copyright (c) Steve Scherf et al.
# Submitted via: audiograbber 1.83.01
#
DISCID=df0de110
DTITLE=Wilson, Gretchen - SC8974
DYEAR=1900
DGENRE=Karaoke
TTITLE0=When I Think About Cheatin'
TTITLE1=Pocahontas Pride
TTITLE2=Raining On Me
TTITLE3=Skoal Ring
TTITLE4=When It Rains
TTITLE5=One Bud Wiser
TTITLE6=Redneck Woman
TTITLE7=I Don't Feel Like Loving You Today
TTITLE8=Here For The Party
TTITLE9=Homewrecker
TTITLE10=All Jacked Up
TTITLE11=Full Time Job
TTITLE12=Holdin' You
TTITLE13=California Girls
TTITLE14=Good Morning Heartache
TTITLE15=Data Track
EXTD=
EXTT0=
EXTT1=
EXTT2=
EXTT3=
EXTT4=
EXTT5=
EXTT6=
EXTT7=
EXTT8=
EXTT9=
EXTT10=
EXTT11=
EXTT12=
EXTT13=
EXTT14=
EXTT15=
PLAYORDER=
